<svg height="512pt" viewBox="-1 -74 512.00124 512" width="512pt" xmlns="http://www.w3.org/2000/svg"><path d="m369.503906 342.359375h-227.007812c-17.464844 0-31.621094-14.15625-31.621094-31.621094 0-17.464843 14.15625-31.625 31.621094-31.625h227.007812c17.464844 0 31.621094 14.160157 31.621094 31.625 0 17.464844-14.15625 31.621094-31.621094 31.621094zm0 0" fill="#f72d2d"/><path d="m420.019531 77.675781v73.238281c0 6.9375-.972656 13.8125-2.863281 20.417969-1.902344 6.613281-4.714844 12.957031-8.382812 18.839844-3.675782 5.882813-6.488282 12.234375-8.378907 18.839844-1.890625 6.613281-2.863281 13.480469-2.863281 20.425781 0 14.101562-3.363281 27.429688-9.328125 39.207031-9.59375 18.949219-25.921875 33.90625-45.835937 41.726563-14.121094 5.542968-26.664063 14.328125-37.023438 25.402344-6.226562 6.648437-13.761719 12.011718-22.132812 15.703124-8.378907 3.695313-17.605469 5.722657-27.210938 5.722657-19.21875 0-36.886719-8.117188-49.339844-21.425781-10.363281-11.074219-22.90625-19.859376-37.023437-25.402344-16.148438-6.34375-29.945313-17.378906-39.695313-31.429688-2.269531-3.277344-4.324218-6.710937-6.144531-10.296875-5.964844-11.777343-9.324219-25.105469-9.324219-39.207031 0-13.964844-3.9375-27.652344-11.378906-39.480469-7.34375-11.679687-11.113281-25.25-11.113281-39.042969v-73.238281c0-38.753906 31.421875-70.175781 70.183593-70.175781h187.671876c38.765624 0 70.183593 31.421875 70.183593 70.175781zm0 0" fill="#fff0d0"/><path d="m420.019531 77.671875v73.238281c0 6.941406-.96875 13.820313-2.867187 20.421875-1.902344 6.609375-4.710938 12.957031-8.382813 18.839844-3.667969 5.886719-6.480469 12.238281-8.378906 18.839844-1.890625 6.617187-2.859375 13.476562-2.859375 20.429687 0 14.097656-3.359375 27.429688-9.332031 39.199219-9.589844 18.949219-25.917969 33.910156-45.828125 41.730469-14.121094 5.539062-26.671875 14.328125-37.03125 25.398437-6.21875 6.652344-13.757813 12.011719-22.128906 15.710938-8.378907 3.691406-17.601563 5.71875-27.210938 5.71875-18.867188 0-36.25-7.828125-48.660156-20.71875 5.761718 1.597656 11.820312 2.449219 18.03125 2.449219 9.609375 0 18.839844-2.03125 27.21875-5.71875 8.371094-3.699219 15.902344-9.0625 22.132812-15.710938 10.359375-11.070312 22.898438-19.859375 37.019532-25.398438 19.910156-7.820312 36.238281-22.78125 45.839843-41.730468 5.957031-11.78125 9.320313-25.101563 9.320313-39.199219 0-6.953125.976562-13.820313 2.867187-20.429687 1.890625-6.613282 4.699219-12.960938 8.382813-18.84375 3.667968-5.886719 6.476562-12.226563 8.378906-18.839844 1.890625-6.609375 2.859375-13.476563 2.859375-20.417969v-73.238281c0-19.152344-7.671875-36.511719-20.109375-49.171875 29.300781 8.429687 50.738281 35.429687 50.738281 67.441406zm0 0" fill="#ead2c1"/><path d="m388.199219 268.640625c-9.589844 18.949219-25.917969 33.910156-45.828125 41.730469-14.121094 5.539062-26.671875 14.328125-37.03125 25.398437-6.21875 6.652344-13.757813 12.011719-22.128906 15.710938-8.378907 3.691406-17.601563 5.71875-27.210938 5.71875-18.867188 0-36.25-7.828125-48.660156-20.71875-.230469-.230469-.457032-.46875-.679688-.710938-10.359375-11.070312-22.910156-19.859375-37.027344-25.398437-16.140624-6.339844-29.941406-17.382813-39.691406-31.429688-2.269531-3.28125-4.320312-6.710937-6.140625-10.300781l101.25-81.25c17.089844-17.089844 44.808594-17.089844 61.898438 0l72.78125 58.398437zm0 0" fill="#4d78a0"/><path d="m388.199219 268.640625c-9.589844 18.949219-25.917969 33.910156-45.828125 41.730469-14.121094 5.539062-26.671875 14.328125-37.03125 25.398437-6.21875 6.652344-13.757813 12.011719-22.128906 15.710938-8.378907 3.691406-17.601563 5.71875-27.210938 5.71875-18.867188 0-36.25-7.828125-48.660156-20.71875 5.761718 1.597656 11.820312 2.449219 18.03125 2.449219 9.609375 0 18.839844-2.03125 27.21875-5.71875 8.371094-3.699219 15.902344-9.0625 22.132812-15.710938 10.359375-11.070312 22.898438-19.859375 37.019532-25.398438 19.910156-7.820312 36.238281-22.78125 45.839843-41.730468.757813-1.5 1.480469-3.03125 2.148438-4.582032zm0 0" fill="#336786"/><path d="m330.65625 7.5h65.9375c29.070312 0 56.953125 11.550781 77.507812 32.105469l17.527344 17.527343c13.285156 13.285157 16.65625 33.550782 8.378906 50.421876l-9.511718 19.394531c-7.378906 15.050781-22.6875 24.59375-39.449219 24.59375h-28.789063c-17.476562 0-33.289062-10.355469-40.277343-26.375zm0 0" fill="#4d78a0"/><path d="m181.34375 7.5h-65.9375c-29.070312 0-56.949219 11.550781-77.507812 32.105469l-17.523438 17.527343c-13.289062 13.285157-16.65625 33.550782-8.382812 50.421876l9.511718 19.394531c7.382813 15.050781 22.6875 24.59375 39.453125 24.59375h28.785157c17.476562 0 33.289062-10.355469 40.277343-26.375zm0 0" fill="#4d78a0"/><path d="m351.753906 131.722656c0 11.363282-9.210937 20.574219-20.574218 20.574219-11.367188 0-20.578126-9.210937-20.578126-20.574219 0-11.363281 9.210938-20.578125 20.578126-20.578125 11.363281 0 20.574218 9.214844 20.574218 20.578125zm0 0" fill="#235872"/><path d="m202.242188 131.722656c0 11.363282-9.210938 20.574219-20.574219 20.574219s-20.574219-9.210937-20.574219-20.574219c0-11.363281 9.210938-20.578125 20.574219-20.578125s20.574219 9.214844 20.574219 20.578125zm0 0" fill="#235872"/><path d="m257.582031 186.894531h-3.164062c-16.039063 0-29.042969-13.003906-29.042969-29.042969 0-9.164062 7.429688-16.589843 16.589844-16.589843h28.070312c9.160156 0 16.589844 7.425781 16.589844 16.589843 0 16.039063-13.003906 29.042969-29.042969 29.042969zm0 0" fill="#8c482c"/><path d="m496.933594 51.828125-17.527344-17.527344c-22.121094-22.117187-51.53125-34.300781-82.8125-34.300781h-156.261719c-4.144531 0-7.5 3.359375-7.5 7.5 0 4.144531 3.355469 7.5 7.5 7.5h85.414063l16.679687 38.246094c1.65625 3.792968 6.078125 5.53125 9.875 3.875s5.53125-6.078125 3.875-9.875l-14.0625-32.246094h54.480469c27.273438 0 52.917969 10.621094 72.203125 29.910156l17.527344 17.523438c11.019531 11.019531 13.8125 27.824218 6.953125 41.816406l-9.515625 19.394531c-6.074219 12.390625-18.917969 20.394531-32.71875 20.394531h-28.785157c-14.496093 0-27.605468-8.582031-33.402343-21.871093l-19.628907-45c-1.65625-3.796875-6.074218-5.535157-9.875-3.875-3.792968 1.65625-5.53125 6.074219-3.875 9.871093l19.628907 45c6.804687 15.597657 20.753906 26.597657 37.027343 29.863282-.410156 3.800781-1.132812 7.558594-2.1875 11.230468-1.71875 5.976563-4.253906 11.679688-7.53125 16.9375-4.023437 6.441407-7.128906 13.421876-9.230468 20.753907-2.09375 7.3125-3.152344 14.882812-3.152344 22.488281 0 9.433594-1.605469 18.550781-4.78125 27.21875l-93.296875-74.867188c-1.285156-1.265624-2.648437-2.4375-4.050781-3.558593 1.445312-2.140625 2.660156-4.449219 3.628906-6.882813l36.949219 30.570313c1.398437 1.15625 3.09375 1.71875 4.777343 1.71875 2.15625 0 4.300782-.925781 5.78125-2.71875 2.640626-3.191407 2.195313-7.917969-.996093-10.558594l-44.277344-36.628906c-1.960937-11.328125-11.851563-19.972657-23.730469-19.972657h-28.070312c-11.878906 0-21.769532 8.648438-23.730469 19.972657l-44.277344 36.628906c-3.191406 2.640625-3.636719 7.367187-.996093 10.558594 1.480468 1.792969 3.625 2.71875 5.78125 2.71875 1.683593 0 3.378906-.5625 4.777343-1.71875l36.949219-30.570313c.972656 2.429688 2.1875 4.738282 3.628906 6.878906-1.402344 1.121094-2.765625 2.296876-4.046875 3.5625l-93.300781 74.871094c-3.175781-8.667968-4.777344-17.789062-4.777344-27.21875 0-15.414062-4.335937-30.445312-12.53125-43.476562-5.265625-8.371094-8.523437-17.929688-9.578125-27.933594 16.273438-3.265625 30.226563-14.265625 37.03125-29.863281l49.363281-113.167969h21.414063c4.140625 0 7.5-3.355469 7.5-7.5 0-4.140625-3.359375-7.5-7.5-7.5h-92.265625c-31.28125 0-60.6875 12.183594-82.8125 34.300781l-17.527344 17.527344c-15.554687 15.554687-19.496094 39.277344-9.808594 59.027344l9.511719 19.394531c8.578125 17.492188 26.707031 28.792969 46.1875 28.792969h23.933594c1.230469 12.476562 5.269531 24.433593 11.851563 34.90625 6.691406 10.636719 10.230468 22.910156 10.230468 35.492187 0 14.984375 3.410156 29.3125 10.136719 42.597656 1.082031 2.125 2.257813 4.222657 3.507813 6.285157-10.652344 7.179687-17.242188 19.226562-17.242188 32.414062 0 21.574219 17.550781 39.125 39.125 39.125h68.777344c12.855468 9.523438 28.570312 14.835938 44.722656 14.835938 10.496094 0 20.667969-2.140625 30.242188-6.359375 5.183593-2.285156 10.027343-5.136719 14.515624-8.476563h68.746094c21.574219 0 39.121094-17.550781 39.121094-39.125 0-13.183593-6.589844-25.234375-17.246094-32.417969 1.238282-2.046874 2.425782-4.136718 3.515625-6.289062 6.726563-13.277344 10.136719-27.605469 10.136719-42.589844 0-6.214844.863281-12.390625 2.574219-18.363281 1.714843-5.980469 4.246093-11.679687 7.535156-16.9375 4.015625-6.449219 7.117187-13.421875 9.222656-20.746094 1.34375-4.691406 2.253907-9.5 2.742188-14.351562h23.941406c19.480469 0 37.609375-11.300781 46.183594-28.789063l9.515625-19.398437c9.683594-19.75 5.742187-43.472657-9.8125-59.027344zm-468.695313 71.816406-9.515625-19.394531c-6.859375-13.992188-4.066406-30.796875 6.953125-41.816406l17.527344-17.523438c19.285156-19.289062 44.929687-29.910156 72.203125-29.910156h54.484375l-46.746094 107.167969c-5.796875 13.289062-18.90625 21.871093-33.402343 21.871093h-28.785157c-13.800781 0-26.644531-8.003906-32.71875-20.394531zm213.730469 25.117188h28.066406c5.015625 0 9.089844 4.078125 9.089844 9.089843 0 11.878907-9.664062 21.542969-21.542969 21.542969h-3.164062c-11.878907 0-21.542969-9.664062-21.542969-21.542969 0-5.011718 4.078125-9.089843 9.09375-9.089843zm38.21875 195.851562c-7.652344 3.375-15.789062 5.085938-24.1875 5.085938-16.546875 0-32.535156-6.945313-43.863281-19.050781-7.242188-7.738282-15.414063-14.351563-24.289063-19.648438-3.554687-2.121094-8.160156-.960938-10.28125 2.597656-2.125 3.554688-.964844 8.160156 2.59375 10.28125 5.25 3.136719 10.214844 6.820313 14.84375 10.980469h-52.507812c-13.300782 0-24.121094-10.820313-24.121094-24.121094 0-8.289062 4.214844-15.84375 11.007812-20.238281 5.730469 6.757812 12.375 12.667969 19.84375 17.628906 1.273438.847656 2.714844 1.253906 4.140626 1.253906 2.429687 0 4.8125-1.179687 6.253906-3.355468 2.292968-3.449219 1.355468-8.101563-2.097656-10.394532-8.453126-5.613281-15.65625-12.667968-21.414063-20.960937-.933594-1.351563-1.824219-2.738281-2.675781-4.144531l96.3125-77.285156c.210937-.171876.414062-.355469.609375-.546876 1.4375-1.441406 3-2.738281 4.644531-3.910156 4.039062 2.542969 8.605469 4.320313 13.5 5.121094v3.421875c-12.574219 2.617187-23.070312 11.707031-27.269531 24.246094-1.316407 3.929687.800781 8.179687 4.726562 9.496093 3.925781 1.316407 8.179688-.800781 9.496094-4.730468 2.960937-8.84375 11.222656-14.785156 20.546875-14.785156 9.328125 0 17.585938 5.941406 20.550781 14.785156 1.050781 3.136718 3.976563 5.121094 7.109375 5.121094.789063 0 1.59375-.128907 2.382813-.394532 3.929687-1.3125 6.046875-5.5625 4.730469-9.492187-4.199219-12.539063-14.695313-21.628907-27.269532-24.246094v-3.421875c4.894532-.800781 9.460938-2.578125 13.5-5.121094 1.644532 1.171875 3.207032 2.46875 4.644532 3.90625.195312.195313.398437.378906.609374.550782l96.3125 77.285156c-9.019531 14.902344-22.648437 26.460937-38.941406 32.863281-14.949218 5.863281-28.324218 15.035156-39.757812 27.253906-5.597656 5.976563-12.21875 10.675781-19.683594 13.96875zm113.4375-33.875c0 13.300781-10.820312 24.125-24.121094 24.125h-52.53125c8.425782-7.597656 17.859375-13.476562 28.136719-17.507812 14.648437-5.753907 27.488281-15.019531 37.515625-26.851563 6.785156 4.398438 11 11.953125 11 20.234375zm0 0"/><path d="m359.253906 131.722656c0-15.480468-12.59375-28.074218-28.074218-28.074218-15.480469 0-28.078126 12.59375-28.078126 28.074218 0 15.480469 12.597657 28.074219 28.078126 28.074219 15.480468 0 28.074218-12.59375 28.074218-28.074219zm-41.152344 0c0-7.210937 5.863282-13.074218 13.074219-13.074218 7.210938 0 13.078125 5.863281 13.078125 13.074218 0 7.210938-5.867187 13.074219-13.078125 13.074219-7.210937 0-13.074219-5.863281-13.074219-13.074219zm0 0"/><path d="m181.667969 103.648438c-15.480469 0-28.074219 12.59375-28.074219 28.074218 0 15.480469 12.59375 28.074219 28.074219 28.074219s28.074219-12.59375 28.074219-28.074219c0-15.480468-12.59375-28.074218-28.074219-28.074218zm0 41.148437c-7.210938 0-13.074219-5.863281-13.074219-13.074219 0-7.210937 5.863281-13.074218 13.074219-13.074218 7.210937 0 13.074219 5.863281 13.074219 13.074218 0 7.210938-5.863282 13.074219-13.074219 13.074219zm0 0"/><path d="m305.066406 304.519531c-2.640625-3.191406-7.367187-3.636719-10.558594-1l-12.335937 10.207031c-.183594.148438-.355469.308594-.523437.472657-6.851563 6.851562-15.957032 10.625-25.648438 10.625-9.6875 0-18.796875-3.773438-25.644531-10.625-.167969-.164063-.34375-.324219-.523438-.472657l-12.335937-10.207031c-3.191406-2.636719-7.921875-2.191406-10.5625 1-2.636719 3.191407-2.191406 7.917969 1 10.558594l12.074218 9.988281c9.652344 9.519532 22.421876 14.757813 35.992188 14.757813 13.574219 0 26.34375-5.238281 35.996094-14.757813l12.070312-9.988281c3.195313-2.640625 3.640625-7.367187 1-10.558594zm0 0"/></svg>