<?xml version="1.0" encoding="UTF-8"?>
<svg width="70px" height="70px" viewBox="0 0 70 70" version="1.1" xmlns="http://www.w3.org/2000/svg" xmlns:xlink="http://www.w3.org/1999/xlink">
    <!-- Generator: Sketch 47 (45396) - http://www.bohemiancoding.com/sketch -->
    <title>Icons/Apps/WhoRu</title>
    <desc>Created with Sketch.</desc>
    <defs>
        <linearGradient x1="25.3805766%" y1="65.6102711%" x2="83.496291%" y2="3.78992943%" id="linearGradient-1">
            <stop stop-color="#00FFC5" offset="0%"></stop>
            <stop stop-color="#FF00ED" offset="100%"></stop>
        </linearGradient>
    </defs>
    <g id="Design" stroke="none" stroke-width="1" fill="none" fill-rule="evenodd">
        <g id="Icons/Apps/WhoRu" stroke-width="2">
            <path d="M31,65.7818204 C48.673112,65.7818204 67,52.673112 67,35 C67,17.326888 56.673112,3 39,3 C21.326888,3 3,17.326888 3,35 C3,52.673112 13.326888,65.7818204 31,65.7818204 Z" id="BG" stroke="#000000" fill="#000000"></path>
            <path d="M32.4123151,33.4683898 C32.1003721,35.7345151 34.8319361,37.6532118 36.9973814,36.9162672 C39.1631017,36.1790475 40.2543519,33.469215 39.5963558,31.2784622 C38.8976476,28.9518189 36.5184636,27.3007769 34.0894899,27.2738189 C31.660241,27.2465858 29.32452,28.737255 28.1493698,30.8630885 C26.9739445,32.989197 26.9227793,35.6522655 27.8264236,37.9071125 C28.8962173,40.5773331 31.2864046,42.6803348 34.0707843,43.4018748 C37.6883873,44.3390791 41.7612509,42.8552869 44.0854185,39.9289649 C46.4093109,37.002918 46.9578244,32.8235977 45.6569618,29.3207038 C44.355824,25.81781 41.3134175,23.0579126 37.7599086,21.9020182 C33.8188092,20.6195861 29.2898596,21.3034398 25.9030504,23.6925268 C22.5165163,26.0813386 20.3527215,30.1184416 20.2385625,34.261176 C20.1717176,36.6769459 20.7700209,39.0954666 21.8686983,41.2477079 C24.2822675,45.9747165 29.2029337,49.3161371 34.4828571,49.8572234 C39.7627804,50.3980345 45.2407627,48.1385112 48.6355493,44.0587705 C55.1211569,36.2640478 54.0200038,24.15659 45.0542572,18.8832687 C37.3778197,14.3683483 26.3431816,14.6646116 19.3376691,20.3637598 C12.8823205,25.6156248 10.8084775,35.4096432 14.4403848,42.8558371 C18.0681658,50.2935034 26.1990386,54.7082939 34.2630666,55.2515808 C40.6840299,55.6837346 47.3066283,53.4830788 51.963491,49.0416053 C56.6203537,44.5998568 59.1480819,37.9252679 58.272496,31.549418" id="Spiral" stroke="url(#linearGradient-1)" stroke-linecap="round" stroke-linejoin="round"></path>
        </g>
    </g>
</svg>