<?xml version="1.0" encoding="UTF-8"?>
<svg width="70px" height="70px" viewBox="0 0 70 70" version="1.1" xmlns="http://www.w3.org/2000/svg" xmlns:xlink="http://www.w3.org/1999/xlink">
    <!-- Generator: Sketch 47 (45396) - http://www.bohemiancoding.com/sketch -->
    <title>Icons/Apps/Portfolio</title>
    <desc>Created with Sketch.</desc>
    <defs></defs>
    <g id="Design" stroke="none" stroke-width="1" fill="none" fill-rule="evenodd">
        <g id="Icons/Apps/Portfolio">
            <polygon id="Shadow" stroke="#000000" stroke-width="2" fill="#000000" points="0 26 57 26 57 46.9683556 57 67 0 67"></polygon>
            <g id="Shading-1" transform="translate(1.000000, 28.000000)" fill="#FFF200">
                <rect id="Rectangle-3" x="52" y="36" width="2" height="2"></rect>
                <rect id="Rectangle-3" x="48" y="36" width="2" height="2"></rect>
                <rect id="Rectangle-3" x="44" y="36" width="2" height="2"></rect>
                <rect id="Rectangle-3" x="40" y="36" width="2" height="2"></rect>
                <rect id="Rectangle-3" x="36" y="36" width="2" height="2"></rect>
                <rect id="Rectangle-3" x="32" y="36" width="2" height="2"></rect>
                <rect id="Rectangle-3" x="28" y="36" width="2" height="2"></rect>
                <rect id="Rectangle-3" x="24" y="36" width="2" height="2"></rect>
                <rect id="Rectangle-3" x="20" y="36" width="2" height="2"></rect>
                <rect id="Rectangle-3" x="16" y="36" width="2" height="2"></rect>
                <rect id="Rectangle-3" x="12" y="36" width="2" height="2"></rect>
                <rect id="Rectangle-3" x="8" y="36" width="2" height="2"></rect>
                <rect id="Rectangle-3" x="4" y="36" width="2" height="2"></rect>
                <rect id="Rectangle-3" x="0" y="36" width="2" height="2"></rect>
                <rect id="Rectangle-3" x="0" y="32" width="2" height="2"></rect>
                <rect id="Rectangle-3" x="0" y="28" width="2" height="2"></rect>
                <rect id="Rectangle-3" x="0" y="24" width="2" height="2"></rect>
                <rect id="Rectangle-3" x="0" y="20" width="2" height="2"></rect>
                <rect id="Rectangle-3" x="0" y="16" width="2" height="2"></rect>
                <rect id="Rectangle-3" x="0" y="12" width="2" height="2"></rect>
                <rect id="Rectangle-3" x="0" y="8" width="2" height="2"></rect>
                <rect id="Rectangle-3" x="0" y="4" width="2" height="2"></rect>
                <rect id="Rectangle-3" x="0" y="0" width="2" height="2"></rect>
            </g>
            <g id="Folder" transform="translate(5.000000, 7.000000)" stroke="#000000" stroke-width="2">
                <polygon id="Rectangle-4" fill="#000000" points="0 0 24.3908749 0 44.5036415 41 0 41"></polygon>
                <rect id="Rectangle-4" fill="#00FFC5" x="0" y="4" width="50" height="51"></rect>
                <rect id="Rectangle-4" fill="#FFFFFF" x="0" y="9" width="55" height="44"></rect>
                <rect id="Rectangle-2" fill="#FF00ED" x="0" y="14" width="60" height="41"></rect>
            </g>
            <g id="Shading-2" transform="translate(33.000000, 28.000000)" fill="#000000">
                <rect id="Rectangle" x="0" y="12" width="2" height="2"></rect>
                <rect id="Rectangle" x="4" y="12" width="2" height="2"></rect>
                <rect id="Rectangle" x="8" y="12" width="2" height="2"></rect>
                <rect id="Rectangle" x="12" y="12" width="2" height="2"></rect>
                <rect id="Rectangle" x="16" y="12" width="2" height="2"></rect>
                <rect id="Rectangle" x="20" y="12" width="2" height="2"></rect>
                <rect id="Rectangle" x="24" y="12" width="2" height="2"></rect>
                <rect id="Rectangle" x="0" y="8" width="2" height="2"></rect>
                <rect id="Rectangle" x="4" y="8" width="2" height="2"></rect>
                <rect id="Rectangle" x="8" y="8" width="2" height="2"></rect>
                <rect id="Rectangle" x="12" y="8" width="2" height="2"></rect>
                <rect id="Rectangle" x="16" y="8" width="2" height="2"></rect>
                <rect id="Rectangle" x="20" y="8" width="2" height="2"></rect>
                <rect id="Rectangle" x="24" y="8" width="2" height="2"></rect>
                <rect id="Rectangle" x="0" y="4" width="2" height="2"></rect>
                <rect id="Rectangle" x="4" y="4" width="2" height="2"></rect>
                <rect id="Rectangle" x="8" y="4" width="2" height="2"></rect>
                <rect id="Rectangle" x="12" y="4" width="2" height="2"></rect>
                <rect id="Rectangle" x="16" y="4" width="2" height="2"></rect>
                <rect id="Rectangle" x="20" y="4" width="2" height="2"></rect>
                <rect id="Rectangle" x="24" y="4" width="2" height="2"></rect>
                <rect id="Rectangle" x="0" y="0" width="2" height="2"></rect>
                <rect id="Rectangle" x="4" y="0" width="2" height="2"></rect>
                <rect id="Rectangle" x="8" y="0" width="2" height="2"></rect>
                <rect id="Rectangle" x="12" y="0" width="2" height="2"></rect>
                <rect id="Rectangle" x="16" y="0" width="2" height="2"></rect>
                <rect id="Rectangle" x="20" y="0" width="2" height="2"></rect>
                <rect id="Rectangle" x="24" y="0" width="2" height="2"></rect>
            </g>
        </g>
    </g>
</svg>