<?xml version="1.0" encoding="UTF-8"?>
<svg width="70px" height="70px" viewBox="0 0 70 70" version="1.1" xmlns="http://www.w3.org/2000/svg" xmlns:xlink="http://www.w3.org/1999/xlink">
    <!-- Generator: Sketch 47 (45396) - http://www.bohemiancoding.com/sketch -->
    <title>Icons/Apps/Drummer</title>
    <desc>Created with Sketch.</desc>
    <defs></defs>
    <g id="Design" stroke="none" stroke-width="1" fill="none" fill-rule="evenodd">
        <g id="Icons/Apps/Drummer">
            <polygon id="Bevel" stroke="#000000" stroke-width="2" fill="#000000" points="6 11 10.3442927 7.04838793 59 11 63.949088 60.5171845 59 64 6 64"></polygon>
            <g id="Shading" transform="translate(7.000000, 13.000000)" fill="#0004FF">
                <rect id="Rectangle-2" x="48" y="48" width="2" height="2"></rect>
                <rect id="Rectangle-2" x="44" y="48" width="2" height="2"></rect>
                <rect id="Rectangle-2" x="40" y="48" width="2" height="2"></rect>
                <rect id="Rectangle-2" x="36" y="48" width="2" height="2"></rect>
                <rect id="Rectangle-2" x="32" y="48" width="2" height="2"></rect>
                <rect id="Rectangle-2" x="28" y="48" width="2" height="2"></rect>
                <rect id="Rectangle-2" x="24" y="48" width="2" height="2"></rect>
                <rect id="Rectangle-2" x="20" y="48" width="2" height="2"></rect>
                <rect id="Rectangle-2" x="16" y="48" width="2" height="2"></rect>
                <rect id="Rectangle-2" x="12" y="48" width="2" height="2"></rect>
                <rect id="Rectangle-2" x="8" y="48" width="2" height="2"></rect>
                <rect id="Rectangle-2" x="4" y="48" width="2" height="2"></rect>
                <rect id="Rectangle-2" x="0" y="48" width="2" height="2"></rect>
                <rect id="Rectangle-2" x="0" y="44" width="2" height="2"></rect>
                <rect id="Rectangle-2" x="0" y="40" width="2" height="2"></rect>
                <rect id="Rectangle-2" x="0" y="36" width="2" height="2"></rect>
                <rect id="Rectangle-2" x="0" y="32" width="2" height="2"></rect>
                <rect id="Rectangle-2" x="0" y="28" width="2" height="2"></rect>
                <rect id="Rectangle-2" x="0" y="24" width="2" height="2"></rect>
                <rect id="Rectangle-2" x="0" y="20" width="2" height="2"></rect>
                <rect id="Rectangle-2" x="0" y="16" width="2" height="2"></rect>
                <rect id="Rectangle-2" x="0" y="12" width="2" height="2"></rect>
                <rect id="Rectangle-2" x="0" y="8" width="2" height="2"></rect>
                <rect id="Rectangle-2" x="0" y="4" width="2" height="2"></rect>
                <rect id="Rectangle-2" x="0" y="0" width="2" height="2"></rect>
            </g>
            <rect id="Rectangle-17" stroke="#000000" stroke-width="2" fill="#0004FF" x="11" y="7" width="53" height="53"></rect>
            <g id="Buttons" transform="translate(19.000000, 46.000000)">
                <circle id="Oval" fill="#FFFFFF" cx="3.5" cy="3.5" r="3.5"></circle>
                <circle id="Oval" fill="#FFFFFF" cx="13.5" cy="3.5" r="3.5"></circle>
                <circle id="Oval" fill="#FF00ED" cx="3.5" cy="3.5" r="1.5"></circle>
                <circle id="Oval" fill="#000000" cx="23.5" cy="3.5" r="3.5"></circle>
                <circle id="Oval" fill="#000000" cx="33.5" cy="3.5" r="3.5"></circle>
            </g>
            <rect id="Rectangle" fill="#000000" x="17" y="12" width="42" height="29"></rect>
            <g id="Pattern" transform="translate(19.000000, 14.000000)">
                <rect id="Rectangle-18" fill="#FFFFFF" x="0" y="0" width="9" height="3"></rect>
                <rect id="Rectangle-18" fill="#FFF200" x="9" y="6" width="9" height="3"></rect>
                <rect id="Rectangle-18" fill="#FF00ED" x="0" y="20" width="9" height="3"></rect>
                <rect id="Rectangle-18" fill="#FF00ED" x="18" y="20" width="9" height="3"></rect>
                <rect id="Rectangle-18" fill="#00FFC5" x="9" y="14" width="9" height="3"></rect>
                <rect id="Rectangle-18" fill="#00FFC5" x="27" y="14" width="9" height="3"></rect>
                <rect id="Rectangle-18" fill="#FFFFFF" x="19" y="0" width="9" height="3"></rect>
            </g>
        </g>
    </g>
</svg>