<?xml version="1.0" encoding="UTF-8"?>
<svg width="70px" height="70px" viewBox="0 0 70 70" version="1.1" xmlns="http://www.w3.org/2000/svg" xmlns:xlink="http://www.w3.org/1999/xlink">
    <!-- Generator: Sketch 47 (45396) - http://www.bohemiancoding.com/sketch -->
    <title>Icons/Apps/Vandalism</title>
    <desc>Created with Sketch.</desc>
    <defs>
        <path d="M44.7091149,2 L44.9401149,2 C49.6641149,2 53.5961149,2.928 56.8551149,4.671 C60.1141149,6.414 62.6721149,8.972 64.4151149,12.231 C66.1581149,15.491 67.0861149,19.422 67.0861149,24.146 L67.0861149,55.225 C67.0861149,56.965 66.3581149,58.644 65.0391149,59.779 C58.1501149,65.708 49.3381149,69 40.1881149,69 L38.4981149,69 C36.8411149,69 35.3161149,68.094 34.5241149,66.638 L32.4531149,62.829 C31.5841149,61.232 31.2251149,60.71 30.7481149,60.175 C30.2841149,59.653 29.7331149,59.211 29.1241149,58.871 C28.4981149,58.522 27.9111149,58.284 26.1641149,57.781 L23.6461149,57.056 C21.4921149,56.437 19.9801149,54.504 19.8991149,52.265 L19.5601149,42.961 C19.5541149,42.811 19.4641149,42.675 19.3261149,42.612 L17.1681149,41.618 C16.1571149,41.152 15.7191149,39.954 16.1881149,38.945 L19.7211149,31.448 C19.9451149,30.971 20.0811149,30.458 20.1231149,29.933 L20.5671149,24.308 C21.5631149,11.713 32.0741149,2 44.7091149,2 Z" id="path-1"></path>
    </defs>
    <g id="Design" stroke="none" stroke-width="1" fill="none" fill-rule="evenodd">
        <g id="Icons/Apps/Vandalism">
            <g id="Can" transform="translate(16.299820, 46.019522) rotate(-19.000000) translate(-16.299820, -46.019522) translate(5.799820, 29.519522)">
                <rect id="Rectangle-15" fill="#000000" x="8.17124146e-14" y="5" width="21" height="28"></rect>
                <rect id="Rectangle-15" stroke="#000000" stroke-width="2" fill="#00FFC5" x="1" y="7" width="19" height="24"></rect>
                <rect id="Rectangle-15" stroke="#000000" stroke-width="2" fill="#00FFC5" x="8" y="2.48689958e-14" width="6" height="6"></rect>
                <g id="Shading" transform="translate(8.000000, 7.000000)" fill="#000000">
                    <rect id="Rectangle" x="2" y="0" width="2" height="24"></rect>
                    <rect id="Rectangle" x="6" y="0" width="2" height="24"></rect>
                    <rect id="Rectangle-2" x="0" y="2" width="4" height="2"></rect>
                    <rect id="Rectangle-2" x="8" y="2" width="4" height="2"></rect>
                    <rect id="Rectangle-2" x="3" y="4" width="4" height="2"></rect>
                    <rect id="Rectangle-2" x="0" y="6" width="4" height="2"></rect>
                    <rect id="Rectangle-2" x="8" y="6" width="4" height="2"></rect>
                    <rect id="Rectangle-2" x="3" y="8" width="4" height="2"></rect>
                    <rect id="Rectangle-2" x="0" y="10" width="4" height="2"></rect>
                    <rect id="Rectangle-2" x="8" y="10" width="4" height="2"></rect>
                    <rect id="Rectangle-2" x="3" y="12" width="4" height="2"></rect>
                    <rect id="Rectangle-2" x="0" y="14" width="4" height="2"></rect>
                    <rect id="Rectangle-2" x="8" y="14" width="4" height="2"></rect>
                    <rect id="Rectangle-2" x="3" y="16" width="4" height="2"></rect>
                    <rect id="Rectangle-2" x="0" y="18" width="4" height="2"></rect>
                    <rect id="Rectangle-2" x="8" y="18" width="4" height="2"></rect>
                    <rect id="Rectangle-2" x="3" y="20" width="4" height="2"></rect>
                    <rect id="Rectangle-2" x="0" y="22" width="4" height="2"></rect>
                    <rect id="Rectangle-2" x="8" y="22" width="4" height="2"></rect>
                    <rect id="Rectangle-2" x="3" y="0" width="4" height="2"></rect>
                </g>
            </g>
            <g id="Head">
                <use fill="#FFFFFF" fill-rule="evenodd" xlink:href="#path-1"></use>
                <path stroke="#000000" stroke-width="2" d="M44.7091149,3 C32.5960135,3 22.5188893,12.3117362 21.5640142,24.3866886 L21.1199302,30.0127452 C21.0683396,30.6576279 20.9012216,31.2875819 20.6257011,31.8742909 L17.0949399,39.3665074 C16.85888,39.8743633 17.0792377,40.4759179 17.586479,40.7097206 L19.7414073,41.702312 C20.222665,41.9220166 20.5382515,42.3944224 20.5594518,42.9245882 L20.8984612,52.2288468 C20.9638167,54.0354016 22.1838636,55.595317 23.9228013,56.0950397 L26.440797,56.8200385 C28.1493215,57.3119606 28.8555968,57.5763907 29.6115828,57.9978591 C30.3188832,58.3927394 30.9576108,58.9054835 31.4945227,59.5095112 C32.0692696,60.1541434 32.479839,60.785911 33.3316532,62.351328 L35.4025633,66.1601627 C36.0193692,67.2940888 37.2071923,68 38.4981149,68 L40.1881149,68 C49.0763704,68 57.6622663,64.8085044 64.3868576,59.0210023 C65.466088,58.0923242 66.0861149,56.6996656 66.0861149,55.225 L66.0861149,24.146 C66.0861149,19.6570579 65.2253883,15.8673736 63.5333093,12.7026131 C61.8835068,9.61787037 59.4682446,7.20260815 56.3835018,5.55280558 C53.2199943,3.86087749 49.4294064,3 44.9401149,3 L44.7091149,3 Z M18.904105,43.5186001 C18.9053178,43.5191637 18.9065331,43.5197235 18.9077508,43.5202794 L18.9041049,43.5186 Z M18.574238,43.3666595 L18.560914,43.000968 C18.56987,43.22487 18.7027319,43.4250128 18.904105,43.5186001 L18.574238,43.3666595 Z"></path>
            </g>
            <g id="BrushStrokes" transform="translate(24.000000, 14.000000)">
                <path d="M36.746307,2.84870915 L36.746307,2.84870915 L36.746307,2.84870915 C37.8768277,3.97550365 37.8798484,5.80541917 36.7530539,6.93593984 C36.7508086,6.9381925 36.7485597,6.94044144 36.746307,6.94268668 L4.95738638,38.6268317 L4.95738638,38.6268317 C3.82203208,39.7584439 1.98522487,39.7584439 0.849870571,38.6268317 L0.849870571,38.6268317 L0.849870571,38.6268317 C-0.280650106,37.5000372 -0.283670765,35.6701217 0.843123739,34.539601 C0.845368969,34.5373484 0.847617916,34.5350994 0.849870571,34.5328542 L32.6387912,2.84870915 L32.6387912,2.84870915 C33.7741455,1.71709695 35.6109527,1.71709695 36.746307,2.84870915 Z" id="Rectangle-14" fill="#00FFC5"></path>
                <path d="M36.7159656,35.6540515 L36.7159656,35.6540515 L36.7159656,35.6540515 C35.0334347,37.3830785 32.2678207,37.420771 30.5387938,35.7382401 C30.5103498,35.710561 30.4822843,35.6824956 30.4546052,35.6540515 L3.30699435,7.75622719 L3.30699435,7.75622719 C1.56433522,5.96541035 1.56433522,3.11265348 3.30699435,1.32183665 L3.30699435,1.32183665 L3.30699435,1.32183665 C4.98952519,-0.407190264 7.75513918,-0.444882779 9.48416609,1.23764806 C9.5126101,1.26532717 9.54067557,1.29339264 9.56835468,1.32183665 L36.7159656,29.219661 L36.7159656,29.219661 C38.4586247,31.0104778 38.4586247,33.8632347 36.7159656,35.6540515 Z" id="Rectangle-14" fill="#00FFC5"></path>
                <path d="M29.655386,43.2135306 L29.655386,43.2135306 L29.655386,43.2135306 C28.6543099,44.242271 27.0088184,44.2646974 25.980078,43.2636213 C25.9631543,43.2471527 25.9464558,43.2304542 25.9299872,43.2135306 L9.77763854,26.6148181 L9.77763854,26.6148181 C8.74078715,25.5493137 8.74078715,23.8519738 9.77763854,22.7864694 L9.77763854,22.7864694 L9.77763854,22.7864694 C10.7787147,21.757729 12.4242061,21.7353026 13.4529466,22.7363787 C13.4698702,22.7528473 13.4865687,22.7695458 13.5030373,22.7864694 L29.655386,39.3851819 L29.655386,39.3851819 C30.6922374,40.4506863 30.6922374,42.1480262 29.655386,43.2135306 Z" id="Rectangle-14" fill="#FF00ED"></path>
            </g>
            <g id="Eye" transform="translate(26.000000, 28.000000)">
                <ellipse id="Oval" fill="#000000" cx="2.5" cy="5.5" rx="1.5" ry="5.5"></ellipse>
                <rect id="Rectangle-3" fill="#FFFFFF" x="0" y="9" width="2" height="2"></rect>
                <rect id="Rectangle-3" fill="#FFFFFF" x="0" y="5" width="2" height="2"></rect>
                <rect id="Rectangle-3" fill="#FFFFFF" x="0" y="1" width="2" height="2"></rect>
            </g>
        </g>
    </g>
</svg>