<?xml version="1.0" encoding="utf-8"?>
<!-- Generator: Adobe Illustrator 22.1.0, SVG Export Plug-In . SVG Version: 6.00 Build 0)  -->
<svg version="1.1" id="Layer_1" xmlns="http://www.w3.org/2000/svg" xmlns:xlink="http://www.w3.org/1999/xlink" x="0px" y="0px"
	 viewBox="0 0 286.7 361.5" style="enable-background:new 0 0 286.7 361.5;" xml:space="preserve">
<style type="text/css">
	.st0{fill:#6FEDD0;}
	.st1{fill:#E93557;}
</style>
<g>
	<path class="st0" d="M271.2,194c-10.3-13.2-22.7-23.1-37.4-29.9c-14.6-6.8-33.4-13.5-56.2-20.3c-16.4-4.8-29.3-9.2-38.8-13.3
		c-9.5-4-17.4-9.2-23.6-15.4c-6.3-6.3-9.4-14.1-9.4-23.4c0-4.2,0.8-8,2.3-11.4c8.6-4.5,19.7-6.7,33.3-6.7c13.8,0,29.8,2.9,48,8.7
		c18.2,5.8,35.9,14,53.3,24.6l0.1-0.2c0,0,0,0,0.1,0l0.1-0.2c0,0,0,0,0.1,0l0.1-0.2c0,0,0,0,0.1,0l0.1-0.2c0,0,0,0,0.1,0l0.1-0.2
		c0,0,0,0,0.1,0l0.1-0.2c0,0,0,0,0.1,0l0.1-0.2c0,0,0,0,0.1,0l0.1-0.2c0,0,0,0,0.1,0l0.1-0.2c0,0,0,0,0.1,0l0.1-0.2c0,0,0,0,0.1,0
		l0.1-0.2c0,0,0,0,0.1,0l0.1-0.2c0,0,0,0,0.1,0l0.1-0.2c0,0,0,0,0.1,0l0.1-0.2c0,0,0,0,0.1,0l0.1-0.2c0,0,0,0,0.1,0l0.1-0.2
		c0,0,0,0,0.1,0l0.1-0.2c0,0,0,0,0.1,0l0.1-0.2c0,0,0,0,0.1,0l0.1-0.2c0,0,0,0,0.1,0l0.1-0.2c0,0,0,0,0.1,0l0.1-0.2c0,0,0,0,0.1,0
		l0.1-0.2c0,0,0,0,0.1,0l0.1-0.2c0,0,0,0,0.1,0l0.1-0.2c0,0,0,0,0.1,0l0.1-0.2c0,0,0,0,0.1,0l0.1-0.2c0,0,0,0,0.1,0l0.1-0.2
		c0,0,0,0,0.1,0l0.1-0.2c0,0,0,0,0.1,0l0.1-0.2c0,0,0,0,0.1,0l0.1-0.2c0,0,0,0,0.1,0l0.1-0.2c0,0,0,0,0.1,0l0.1-0.2c0,0,0,0,0.1,0
		l0.1-0.2c0,0,0,0,0.1,0l0.1-0.2c0,0,0,0,0.1,0l0.1-0.2c0,0,0,0,0.1,0l0.1-0.2c0,0,0,0,0.1,0l0.1-0.2c0,0,0,0,0.1,0l0.1-0.2
		c0,0,0,0,0.1,0l0.1-0.2c0,0,0,0,0.1,0l0.1-0.2c0,0,0,0,0.1,0l0.1-0.2c0,0,0,0,0.1,0l0.1-0.2c0,0,0,0,0.1,0l0.1-0.2c0,0,0,0,0.1,0
		l0.1-0.2c0,0,0,0,0.1,0l0.1-0.2c0,0,0,0,0.1,0l0.1-0.2c0,0,0,0,0.1,0l0.1-0.2c0,0,0,0,0.1,0l0.1-0.2c0,0,0,0,0.1,0l0.1-0.2
		c0,0,0,0,0.1,0l0.1-0.2c0,0,0,0,0.1,0l0.1-0.2c0,0,0,0,0.1,0l0.1-0.2c0,0,0,0,0.1,0l0.1-0.2c0,0,0,0,0.1,0l0.1-0.2c0,0,0,0,0.1,0
		l0.1-0.2c0,0,0,0,0.1,0l0.1-0.2c0,0,0,0,0.1,0l0.1-0.2c0,0,0,0,0.1,0l0.1-0.2c0,0,0,0,0.1,0l0.1-0.2c0,0,0,0,0.1,0l0.1-0.2
		c0,0,0,0,0.1,0l0.1-0.2c0,0,0,0,0.1,0l0.1-0.2c0,0,0,0,0.1,0l0.1-0.2c0,0,0,0,0.1,0l0.1-0.2c0,0,0,0,0.1,0l0.1-0.2c0,0,0,0,0.1,0
		l0.1-0.2c0,0,0,0,0.1,0l0.1-0.2c0,0,0,0,0.1,0l0.1-0.2c0,0,0,0,0.1,0l0.1-0.2c0,0,0,0,0.1,0l0.1-0.2c0,0,0,0,0.1,0l0.1-0.2
		c0,0,0,0,0.1,0l0.1-0.2c0,0,0,0,0.1,0l0.1-0.2c0,0,0,0,0.1,0l0.1-0.2c0,0,0,0,0.1,0l0.1-0.2c0,0,0,0,0.1,0l0.1-0.2c0,0,0,0,0.1,0
		l0.1-0.2c0,0,0,0,0.1,0l0.1-0.2c0,0,0,0,0.1,0l0.1-0.2c0,0,0,0,0.1,0l0.1-0.2c0,0,0,0,0.1,0l0.1-0.2c0,0,0,0,0.1,0l0.1-0.2
		c0,0,0,0,0.1,0l0.1-0.2c0,0,0,0,0.1,0l0.1-0.2c0,0,0,0,0.1,0l0.1-0.2c0,0,0,0,0.1,0l0.1-0.2c0,0,0,0,0.1,0l0.1-0.2c0,0,0,0,0.1,0
		l0.1-0.2c0,0,0,0,0.1,0l0.1-0.2c0,0,0,0,0.1,0l0.1-0.2c0,0,0,0,0.1,0l0.1-0.2c0,0,0,0,0.1,0l0.1-0.2c0,0,0,0,0.1,0l0.1-0.2
		c0,0,0,0,0.1,0l0.1-0.2c0,0,0,0,0.1,0l0.1-0.2c0,0,0,0,0.1,0l0.1-0.2c0,0,0,0,0.1,0l0.1-0.2c0,0,0,0,0.1,0l0.1-0.2c0,0,0,0,0.1,0
		l0.1-0.2c0,0,0,0,0.1,0l0.1-0.2c0,0,0,0,0.1,0l0.1-0.2c0,0,0,0,0.1,0l0.1-0.2c0,0,0,0,0.1,0l0.1-0.2c0,0,0,0,0.1,0l0.1-0.2
		c0,0,0,0,0.1,0l0.1-0.2c0,0,0,0,0.1,0l0.1-0.2c0,0,0,0,0.1,0l0.1-0.2c0,0,0,0,0.1,0l0.1-0.2c0,0,0,0,0.1,0l0.1-0.2c0,0,0,0,0.1,0
		l0.1-0.2c0,0,0,0,0.1,0l0.1-0.2c0,0,0,0,0.1,0l0.1-0.2c0,0,0,0,0.1,0l0.1-0.2c0,0,0,0,0.1,0l0.1-0.2c0,0,0,0,0.1,0l0.1-0.2
		c0,0,0,0,0.1,0l0.1-0.2c0,0,0,0,0.1,0l0.1-0.2c0,0,0,0,0.1,0l26-56.4c-16.7-10.9-35.8-19.6-57.1-26c-21.4-6.4-43-9.6-64.9-9.6
		c-25.1,0-47.2,4-66.3,12.1c-14.4,6-26.3,13.9-35.7,23.7c0,0-0.1,0.1-0.1,0.1c0,0-0.1,0.1-0.1,0.1c0,0-0.1,0.1-0.1,0.1
		c0,0-0.1,0.1-0.1,0.1c0,0-0.1,0.1-0.1,0.1c0,0-0.1,0.1-0.1,0.1c0,0-0.1,0.1-0.1,0.1c0,0-0.1,0.1-0.1,0.1c0,0-0.1,0.1-0.1,0.1
		c0,0-0.1,0.1-0.1,0.1c0,0-0.1,0.1-0.1,0.1c0,0-0.1,0.1-0.1,0.1c0,0-0.1,0.1-0.1,0.1c0,0-0.1,0.1-0.1,0.1c0,0-0.1,0.1-0.1,0.1
		c0,0-0.1,0.1-0.1,0.1c0,0-0.1,0.1-0.1,0.1c0,0-0.1,0.1-0.1,0.1c0,0-0.1,0.1-0.1,0.1c0,0-0.1,0.1-0.1,0.1c0,0-0.1,0.1-0.1,0.1
		c0,0-0.1,0.1-0.1,0.1c0,0-0.1,0.1-0.1,0.1c0,0-0.1,0.1-0.1,0.1c0,0-0.1,0.1-0.1,0.1c0,0-0.1,0.1-0.1,0.1c0,0-0.1,0.1-0.1,0.1
		c0,0-0.1,0.1-0.1,0.1c0,0-0.1,0.1-0.1,0.1c0,0-0.1,0.1-0.1,0.1c0,0-0.1,0.1-0.1,0.1c0,0-0.1,0.1-0.1,0.1c0,0-0.1,0.1-0.1,0.1
		c0,0-0.1,0.1-0.1,0.1c0,0-0.1,0.1-0.1,0.1c0,0-0.1,0.1-0.1,0.1c0,0-0.1,0.1-0.1,0.1c0,0-0.1,0.1-0.1,0.1c0,0-0.1,0.1-0.1,0.1
		c0,0-0.1,0.1-0.1,0.1c0,0-0.1,0.1-0.1,0.1c0,0-0.1,0.1-0.1,0.1c0,0-0.1,0.1-0.1,0.1c0,0-0.1,0.1-0.1,0.1c0,0-0.1,0.1-0.1,0.1
		c0,0-0.1,0.1-0.1,0.1c0,0-0.1,0.1-0.1,0.1c0,0-0.1,0.1-0.1,0.1c0,0-0.1,0.1-0.1,0.1c0,0-0.1,0.1-0.1,0.1c0,0-0.1,0.1-0.1,0.1
		c0,0-0.1,0.1-0.1,0.1c0,0-0.1,0.1-0.1,0.1c0,0-0.1,0.1-0.1,0.1c0,0-0.1,0.1-0.1,0.1c0,0-0.1,0.1-0.1,0.1c0,0-0.1,0.1-0.1,0.1
		c0,0-0.1,0.1-0.1,0.1c0,0-0.1,0.1-0.1,0.1c0,0-0.1,0.1-0.1,0.1c0,0-0.1,0.1-0.1,0.1c0,0-0.1,0.1-0.1,0.1c0,0-0.1,0.1-0.1,0.1
		c0,0-0.1,0.1-0.1,0.1c0,0-0.1,0.1-0.1,0.1c0,0-0.1,0.1-0.1,0.1c0,0-0.1,0.1-0.1,0.1c0,0-0.1,0.1-0.1,0.1c0,0-0.1,0.1-0.1,0.1
		c0,0-0.1,0.1-0.1,0.1c0,0-0.1,0.1-0.1,0.1c0,0-0.1,0.1-0.1,0.1c0,0-0.1,0.1-0.1,0.1c0,0-0.1,0.1-0.1,0.1c0,0-0.1,0.1-0.1,0.1
		c0,0-0.1,0.1-0.1,0.1c0,0-0.1,0.1-0.1,0.1c0,0-0.1,0.1-0.1,0.1c0,0-0.1,0.1-0.1,0.1c0,0-0.1,0.1-0.1,0.1c0,0-0.1,0.1-0.1,0.1
		c0,0-0.1,0.1-0.1,0.1c0,0-0.1,0.1-0.1,0.1c0,0-0.1,0.1-0.1,0.1c0,0-0.1,0.1-0.1,0.1c0,0-0.1,0.1-0.1,0.1s-0.1,0.1-0.1,0.1
		c0,0-0.1,0.1-0.1,0.1c0,0-0.1,0.1-0.1,0.1c0,0-0.1,0.1-0.1,0.1c0,0-0.1,0.1-0.1,0.1c0,0-0.1,0.1-0.1,0.1c0,0-0.1,0.1-0.1,0.1
		c0,0-0.1,0.1-0.1,0.1c0,0-0.1,0.1-0.1,0.1c0,0-0.1,0.1-0.1,0.1c0,0-0.1,0.1-0.1,0.1c0,0-0.1,0.1-0.1,0.1c0,0-0.1,0.1-0.1,0.1
		c0,0-0.1,0.1-0.1,0.1c0,0-0.1,0.1-0.1,0.1c0,0-0.1,0.1-0.1,0.1c0,0-0.1,0.1-0.1,0.1c0,0-0.1,0.1-0.1,0.1c0,0-0.1,0.1-0.1,0.1
		c0,0-0.1,0.1-0.1,0.1c0,0-0.1,0.1-0.1,0.1c0,0-0.1,0.1-0.1,0.1c0,0-0.1,0.1-0.1,0.1c0,0-0.1,0.1-0.1,0.1c0,0-0.1,0.1-0.1,0.1
		c0,0-0.1,0.1-0.1,0.1c0,0-0.1,0.1-0.1,0.1c0,0-0.1,0.1-0.1,0.1c0,0-0.1,0.1-0.1,0.1c0,0-0.1,0.1-0.1,0.1c-3.2,3.3-6.1,6.8-8.8,10.5
		c-10.5,14.6-15.7,31.8-15.7,51.4c0,21.2,5.1,38.3,15.4,51.4c10.3,13,22.7,22.7,37.1,29.2c14.5,6.4,33.1,13,55.9,19.8
		c16.7,4.8,29.9,9.2,39.5,13c9.6,3.9,17.6,8.9,23.9,15.2c6.3,6.3,9.4,14.2,9.4,23.9c0,5.7-1.2,10.7-3.5,15.3
		c-10,5.8-23.3,8.7-39.8,8.7c-18.3,0-38.1-4.5-59.3-13.5c-21.2-9-40.4-21.4-57.4-37.1l-0.1,0.2c0,0,0,0,0,0l-0.1,0.2c0,0,0,0,0,0
		l-0.1,0.2c0,0,0,0,0,0l-0.1,0.2c0,0,0,0,0,0l-0.1,0.2c0,0,0,0,0,0l-0.1,0.2c0,0,0,0,0,0l-0.1,0.2c0,0,0,0,0,0l-0.1,0.2c0,0,0,0,0,0
		l-0.1,0.2c0,0,0,0,0,0l-0.1,0.2c0,0,0,0,0,0l-0.1,0.2c0,0,0,0,0,0l-0.1,0.2c0,0,0,0,0,0l-0.1,0.2c0,0,0,0,0,0l-0.1,0.2c0,0,0,0,0,0
		l-0.1,0.2c0,0,0,0,0,0l-0.1,0.2c0,0,0,0,0,0l-0.1,0.2c0,0,0,0,0,0l-0.1,0.2c0,0,0,0,0,0l-0.1,0.2c0,0,0,0,0,0l-0.1,0.2c0,0,0,0,0,0
		l-0.1,0.2c0,0,0,0,0,0l-0.1,0.2c0,0,0,0,0,0l-0.1,0.2c0,0,0,0,0,0l-0.1,0.2c0,0,0,0,0,0l-0.1,0.2c0,0,0,0,0,0l-0.1,0.2c0,0,0,0,0,0
		l-0.1,0.2c0,0,0,0,0,0l-0.1,0.2c0,0,0,0,0,0l-0.1,0.2c0,0,0,0,0,0l-0.1,0.2c0,0,0,0,0,0l-0.1,0.2c0,0,0,0,0,0l-0.1,0.2c0,0,0,0,0,0
		l-0.1,0.2c0,0,0,0,0,0l-0.1,0.2c0,0,0,0,0,0l-0.1,0.2c0,0,0,0,0,0l-0.1,0.2c0,0,0,0,0,0l-0.1,0.2c0,0,0,0,0,0l-0.1,0.2c0,0,0,0,0,0
		l-0.1,0.2c0,0,0,0,0,0l-0.1,0.2c0,0,0,0,0,0l-0.1,0.2c0,0,0,0,0,0l-0.1,0.2c0,0,0,0,0,0l-0.1,0.2c0,0,0,0,0,0l-0.1,0.2c0,0,0,0,0,0
		l-0.1,0.2c0,0,0,0,0,0l-0.1,0.2c0,0,0,0,0,0l-0.1,0.2c0,0,0,0,0,0l-0.1,0.2c0,0,0,0,0,0l-0.1,0.2c0,0,0,0,0,0l-0.1,0.2c0,0,0,0,0,0
		l-0.1,0.2c0,0,0,0,0,0l-0.1,0.2c0,0,0,0,0,0l-0.1,0.2c0,0,0,0,0,0l-0.1,0.2c0,0,0,0,0,0l-0.1,0.2c0,0,0,0,0,0l-0.1,0.2c0,0,0,0,0,0
		l-0.1,0.2c0,0,0,0,0,0l-0.1,0.2c0,0,0,0,0,0l-0.1,0.2c0,0,0,0,0,0l-0.1,0.2c0,0,0,0,0,0l-0.1,0.2c0,0,0,0,0,0l-0.1,0.2c0,0,0,0,0,0
		l-0.1,0.2c0,0,0,0,0,0l-0.1,0.2c0,0,0,0,0,0l-0.1,0.2c0,0,0,0,0,0l-0.1,0.2c0,0,0,0,0,0l-0.1,0.2c0,0,0,0,0,0l-0.1,0.2c0,0,0,0,0,0
		l-0.1,0.2c0,0,0,0,0,0l-0.1,0.2c0,0,0,0,0,0l-0.1,0.2c0,0,0,0,0,0l-0.1,0.2c0,0,0,0,0,0l-0.1,0.2c0,0,0,0,0,0l-0.1,0.2c0,0,0,0,0,0
		l-0.1,0.2c0,0,0,0,0,0l-0.1,0.2c0,0,0,0,0,0l-0.1,0.2c0,0,0,0,0,0l-0.1,0.2c0,0,0,0,0,0l-0.1,0.2c0,0,0,0,0,0l-0.1,0.2c0,0,0,0,0,0
		l-0.1,0.2c0,0,0,0,0,0l-0.1,0.2c0,0,0,0,0,0l-0.1,0.2c0,0,0,0,0,0l-0.1,0.2c0,0,0,0,0,0l-0.1,0.2c0,0,0,0,0,0l-0.1,0.2c0,0,0,0,0,0
		l-0.1,0.2c0,0,0,0,0,0l-0.1,0.2c0,0,0,0,0,0l-0.1,0.2c0,0,0,0,0,0l-0.1,0.2c0,0,0,0,0,0l-0.1,0.2c0,0,0,0,0,0l-0.1,0.2c0,0,0,0,0,0
		l-0.1,0.2c0,0,0,0,0,0l-0.1,0.2c0,0,0,0,0,0l-0.1,0.2c0,0,0,0,0,0l-0.1,0.2c0,0,0,0,0,0l-0.1,0.2c0,0,0,0,0,0l-0.1,0.2c0,0,0,0,0,0
		l-0.1,0.2c0,0,0,0,0,0l-0.1,0.2c0,0,0,0,0,0l-0.1,0.2c0,0,0,0,0,0l-0.1,0.2c0,0,0,0,0,0l-0.1,0.2c0,0,0,0,0,0l-0.1,0.2c0,0,0,0,0,0
		l-0.1,0.2c0,0,0,0,0,0l-0.1,0.2c0,0,0,0,0,0l-0.1,0.2c0,0,0,0,0,0l-0.1,0.2c0,0,0,0,0,0l-0.1,0.2c0,0,0,0,0,0l-0.1,0.2c0,0,0,0,0,0
		l-0.1,0.2c0,0,0,0,0,0l-0.1,0.2c0,0,0,0,0,0l-0.1,0.2c0,0,0,0,0,0l-0.1,0.2c0,0,0,0,0,0l-0.1,0.2c0,0,0,0,0,0l-0.1,0.2c0,0,0,0,0,0
		l-0.1,0.2c0,0,0,0,0,0l-27,55c18.6,16.4,40.5,29.5,65.6,39.3c25.1,9.8,50.8,14.7,77.2,14.7c25.1,0,47.3-4,66.8-12.1
		c14.6-6,26.8-14.1,36.7-24.2c0,0,0.1-0.1,0.1-0.1c0,0,0.1-0.1,0.1-0.1c0,0,0.1-0.1,0.1-0.1c0,0,0.1-0.1,0.1-0.1
		c0,0,0.1-0.1,0.1-0.1c0,0,0.1-0.1,0.1-0.1c0,0,0.1-0.1,0.1-0.1c0,0,0.1-0.1,0.1-0.1c0,0,0.1-0.1,0.1-0.1c0,0,0.1-0.1,0.1-0.1
		c0,0,0.1-0.1,0.1-0.1c0,0,0.1-0.1,0.1-0.1c0,0,0.1-0.1,0.1-0.1c0,0,0.1-0.1,0.1-0.1c0,0,0.1-0.1,0.1-0.1c0,0,0.1-0.1,0.1-0.1
		c0,0,0.1-0.1,0.1-0.1c0,0,0.1-0.1,0.1-0.1c0,0,0.1-0.1,0.1-0.1c0,0,0.1-0.1,0.1-0.1c0,0,0.1-0.1,0.1-0.1c0,0,0.1-0.1,0.1-0.1
		c0,0,0.1-0.1,0.1-0.1c0,0,0.1-0.1,0.1-0.1c0,0,0.1-0.1,0.1-0.1c0,0,0.1-0.1,0.1-0.1c0,0,0.1-0.1,0.1-0.1c0,0,0.1-0.1,0.1-0.1
		c0,0,0.1-0.1,0.1-0.1c0,0,0.1-0.1,0.1-0.1c0,0,0.1-0.1,0.1-0.1c0,0,0.1-0.1,0.1-0.1c0,0,0.1-0.1,0.1-0.1c0,0,0.1-0.1,0.1-0.1
		c0,0,0.1-0.1,0.1-0.1c0,0,0.1-0.1,0.1-0.1c0,0,0.1-0.1,0.1-0.1c0,0,0.1-0.1,0.1-0.1c0,0,0.1-0.1,0.1-0.1c0,0,0.1-0.1,0.1-0.1
		c0,0,0.1-0.1,0.1-0.1c0,0,0.1-0.1,0.1-0.1c0,0,0.1-0.1,0.1-0.1c0,0,0.1-0.1,0.1-0.1c0,0,0.1-0.1,0.1-0.1c0,0,0.1-0.1,0.1-0.1
		c0,0,0.1-0.1,0.1-0.1c0,0,0.1-0.1,0.1-0.1c0,0,0.1-0.1,0.1-0.1c0,0,0.1-0.1,0.1-0.1c0,0,0.1-0.1,0.1-0.1c0,0,0.1-0.1,0.1-0.1
		c0,0,0.1-0.1,0.1-0.1c0,0,0.1-0.1,0.1-0.1c0,0,0.1-0.1,0.1-0.1c0,0,0.1-0.1,0.1-0.1c0,0,0.1-0.1,0.1-0.1c0,0,0.1-0.1,0.1-0.1
		c0,0,0.1-0.1,0.1-0.1c0,0,0.1-0.1,0.1-0.1c0,0,0.1-0.1,0.1-0.1c0,0,0.1-0.1,0.1-0.1c0,0,0.1-0.1,0.1-0.1c0,0,0.1-0.1,0.1-0.1
		c0,0,0.1-0.1,0.1-0.1c0,0,0.1-0.1,0.1-0.1c0,0,0.1-0.1,0.1-0.1c0,0,0.1-0.1,0.1-0.1c0,0,0.1-0.1,0.1-0.1c0,0,0.1-0.1,0.1-0.1
		c0,0,0.1-0.1,0.1-0.1c0,0,0.1-0.1,0.1-0.1c0,0,0.1-0.1,0.1-0.1c0,0,0.1-0.1,0.1-0.1c0,0,0.1-0.1,0.1-0.1c0,0,0.1-0.1,0.1-0.1
		c0,0,0.1-0.1,0.1-0.1c0,0,0.1-0.1,0.1-0.1c0,0,0.1-0.1,0.1-0.1c0,0,0.1-0.1,0.1-0.1c0,0,0.1-0.1,0.1-0.1c0,0,0.1-0.1,0.1-0.1
		c0,0,0.1-0.1,0.1-0.1c0,0,0.1-0.1,0.1-0.1c0,0,0.1-0.1,0.1-0.1c0,0,0.1-0.1,0.1-0.1c0,0,0.1-0.1,0.1-0.1c0,0,0.1-0.1,0.1-0.1
		c0,0,0.1-0.1,0.1-0.1c0,0,0.1-0.1,0.1-0.1c0,0,0.1-0.1,0.1-0.1c0,0,0.1-0.1,0.1-0.1c0,0,0.1-0.1,0.1-0.1c0,0,0.1-0.1,0.1-0.1
		c0,0,0.1-0.1,0.1-0.1c0,0,0.1-0.1,0.1-0.1c0,0,0.1-0.1,0.1-0.1c0,0,0.1-0.1,0.1-0.1c0,0,0.1-0.1,0.1-0.1c0,0,0.1-0.1,0.1-0.1
		c0,0,0.1-0.1,0.1-0.1c0,0,0.1-0.1,0.1-0.1c0,0,0.1-0.1,0.1-0.1c0,0,0.1-0.1,0.1-0.1c0,0,0.1-0.1,0.1-0.1c0,0,0.1-0.1,0.1-0.1
		c0,0,0.1-0.1,0.1-0.1c0,0,0.1-0.1,0.1-0.1c0,0,0.1-0.1,0.1-0.1c0,0,0.1-0.1,0.1-0.1c0,0,0.1-0.1,0.1-0.1c0,0,0.1-0.1,0.1-0.1
		c0,0,0.1-0.1,0.1-0.1c0,0,0.1-0.1,0.1-0.1c0,0,0.1-0.1,0.1-0.1c0,0,0.1-0.1,0.1-0.1c3.3-3.4,6.4-7,9.2-10.9
		c11.1-15.3,16.6-33.2,16.6-53.8C286.6,224.6,281.4,207.2,271.2,194z"/>
	<g>
		<path class="st1" d="M204,67.6c-18.2-5.8-34.2-8.7-48-8.7c-15.4,0-27.7,2.9-36.7,8.7c-9,5.8-13.5,13.8-13.5,24.1
			c0,9.3,3.1,17.1,9.4,23.4c6.3,6.3,14.1,11.4,23.6,15.4c9.5,4,22.4,8.4,38.8,13.3c22.8,6.8,41.6,13.5,56.2,20.3
			c14.6,6.8,27.1,16.7,37.4,29.9c10.3,13.2,15.4,30.5,15.4,52.1c0,20.6-5.5,38.5-16.6,53.8c-11.1,15.3-26.4,26.9-45.8,35
			c-19.5,8-41.7,12.1-66.8,12.1c-26.4,0-52.1-4.9-77.2-14.7c-25.1-9.8-46.9-22.9-65.6-39.3l27-55c17,15.8,36.2,28.1,57.4,37.1
			c21.2,9,41,13.5,59.3,13.5c18,0,32.1-3.5,42.4-10.4c10.3-6.9,15.4-16.3,15.4-28.2c0-9.6-3.1-17.6-9.4-23.9
			c-6.3-6.3-14.2-11.3-23.9-15.2c-9.6-3.9-22.8-8.2-39.5-13C120.7,191,102,184.4,87.5,178c-14.5-6.4-26.8-16.2-37.1-29.2
			C40.1,135.8,35,118.7,35,97.5c0-19.6,5.2-36.7,15.7-51.4c10.4-14.6,25.2-26,44.4-34C114.1,4.1,136.3,0,161.3,0
			c21.9,0,43.5,3.2,64.9,9.6c21.4,6.4,40.4,15.1,57.1,26l-26,56.4C239.9,81.6,222.2,73.4,204,67.6z"/>
	</g>
</g>
</svg>
